<?xml version="1.0" encoding="UTF-8"?>
<svg id="_Слой_2" data-name="Слой 2" xmlns="http://www.w3.org/2000/svg" viewBox="0 0 896 142.97">
  <defs>
    <style>
      .cls-1 {
        fill: #067d8c;
      }

      .cls-1, .cls-2 {
        stroke-width: 0px;
      }

      .cls-2 {
        fill: #fff;
      }
    </style>
  </defs>
  <g id="_Слой_1-2" data-name="Слой 1">
    <g>
      <path class="cls-1" d="M27.86,0h358.93c4.13,0,7.79,1.7,9.85,4.99l36.38,59.01c2.8,4.63,2.31,10.22-1.7,14.84l-51.23,59.01c-2.8,3.16-6.45,5.11-10.59,5.11H11.65c-7.18,0-12.41-5.6-11.56-12.66L13.61,12.66C14.46,5.48,20.67,0,27.85,0h0Z"/>
      <path class="cls-2" d="M212.81,39.86l-18.63,42.4-9.68-42.4h-19.12l17.04,61.4-9.92,20.1h18.87l40.07-81.5h-18.64ZM32.41,121.36h17.15l2.82-23.16c2.69,2.08,7.72,4.41,14.09,4.41,19.86,0,31.99-17.53,31.99-36.64,0-16.3-7.72-27.7-22.18-27.7-6.87,0-13.12,2.2-17.89,6.13l.61-4.53h-16.66l-9.92,81.5v-.02ZM53.86,86.18l3.8-30.14c3.67-2.94,7.84-4.17,11.52-4.05,7.35.12,11.4,6,11.4,15.2,0,11.89-6.25,22.06-16.79,22.06-3.31,0-7.1-1.1-9.92-3.07ZM101.78,84.59c-.13,9.92,7.97,18.02,20.34,18.02,8.7,0,15.07-3.67,18.75-7.72l-.74,6.25h16.66l4.05-33.21c1.96-16.42-3.43-29.78-24.51-29.78-8.58,0-18.99,1.96-24.63,5.64l-1.72,13.73c4.54-2.46,13.36-5.44,21.45-5.44,9.68,0,13.12,4.83,12.74,9.98h-10.3c-14.95,0-31.99,5.76-32.11,22.55h.02ZM119.06,83.24c0-6.62,7.72-9.07,15.68-9.07h8.09l-1.23,9.92c-3.43,2.69-9.56,5.51-14.71,5.51-4.66,0-7.84-2.57-7.84-6.38h0ZM329.45,73.07c-.25,15.32,10.91,29.53,33.7,29.53,8.09,0,14.95-1.59,21.07-5.39l1.23-14.46c-5.02,3.07-12.62,5.15-19.24,5.15-8.7,0-16.54-3.8-18.75-12.62h42.4c.61-1.59,1.1-5.39,1.1-9.07,0-16.17-8.95-27.94-27.33-27.94s-33.94,10.91-34.19,34.8h0ZM347.59,64.86c1.72-8.09,7.6-12.87,14.83-12.87s11.15,4.05,11.15,10.54c0,.74,0,1.59-.12,2.33h-25.86ZM245.41,101.13l5.64-44.85c3.8-2.57,8.09-4.66,11.77-4.66,4.78,0,7.1,3.56,6.38,9.68l-4.9,39.83h17.28l5.39-43.5.12-1.23c3.8-2.57,8.21-4.78,11.89-4.78,4.78,0,7.1,3.56,6.38,9.68l-4.9,39.83h17.28l5.39-43.5c1.47-12.13-4.78-19.48-15.93-19.48-7.72,0-15.93,4.41-21.45,8.46-2.33-5.39-7.48-8.46-14.71-8.46s-14.22,3.56-19.73,7.23l.74-5.51h-16.17l-7.72,61.28h17.28-.02Z"/>
      <path class="cls-1" d="M506.52,66.52c0-8.96-4.77-13.73-11.69-13.73-4.42,0-7.84.9-11.24,3.4l-3.75,28.14c2.5,2.72,6.02,4.54,11.01,4.54,11.91,0,15.66-12.36,15.66-22.35ZM522.96,66.52c0,17.48-9.09,35.06-29.39,35.06-7.84,0-13.28-2.84-16.46-6.92l-1.6,5.22h-14.51l11.24-79.89h16.33l-3.4,24.62c3.52-2.95,7.84-4.54,13.16-4.54,14.18,0,24.62,9.54,24.62,26.44Z"/>
      <path class="cls-1" d="M586.75,41.78l-8.17,58.11h-14.18l-.23-6.47c-3.97,5.22-9.42,8.17-16.46,8.17-10.89,0-17.93-6.92-17.93-17.48,0-1.92.12-3.52.68-7.37l4.87-34.96h16.11l-4.87,34.96c-.23,1.47-.35,2.95-.35,4.65,0,3.97,2.6,6.92,7.84,6.92,4.09,0,7.49-1.7,10.56-4.99l5.79-41.53h16.33Z"/>
      <path class="cls-1" d="M620.68,84.33c0-2.84-1.47-4.09-6.81-6.24l-7.27-3.07c-8.96-3.62-13.16-8.39-13.16-16.8,0-10.33,8.17-18.16,24.97-18.16,8.29,0,15.88,2.27,21.9,5.67l-3.29,11.69c-5.9-2.95-12.81-5.1-18.61-5.1s-8.51,1.92-8.51,5.1c0,2.84,1.7,4.09,5.79,5.67l7.72,3.17c9.54,3.87,13.73,8.06,13.73,17.25s-7.27,18.05-24.85,18.05c-9.99,0-17.81-2.84-23.6-6.24l3.29-12.03c5.57,3.4,12.71,5.9,20.31,5.9,5.9,0,8.39-1.82,8.39-4.87v.02Z"/>
      <path class="cls-1" d="M654.18,20h15.88l-2.05,13.96h-15.88l2.05-13.96ZM651.11,41.78h15.78l-8.17,58.11h-15.78l8.17-58.11Z"/>
      <path class="cls-1" d="M726.57,57.56c0,1.92-.12,3.52-.68,7.37l-4.87,34.96h-16.11l4.87-34.96c.23-1.47.35-2.95.35-4.65,0-3.97-2.6-6.92-7.84-6.92-4.09,0-7.49,1.7-10.56,4.99l-5.79,41.53h-16.33l8.17-58.11h14.18l.23,6.47c3.97-5.22,9.42-8.17,16.46-8.17,10.89,0,17.93,6.92,17.93,17.48Z"/>
      <path class="cls-1" d="M750.29,65.85h22.8c.12-1.13.23-2.15.23-3.29,0-5.9-2.95-9.76-9.42-9.76-8.06,0-12.03,5.79-13.61,13.06ZM786.95,76.17h-37.56c.45,8.96,5.9,12.36,14.98,12.36,7.49,0,14.18-1.6,19.98-5.79l-4.09,14.76c-5.44,3.07-11.91,4.09-17.13,4.09-20.65,0-29.62-11.24-29.62-26.55,0-18.28,10.21-34.96,30.41-34.96,16.8,0,24.85,10.44,24.85,23.5,0,4.54-.8,8.74-1.82,12.59Z"/>
      <path class="cls-1" d="M824.06,84.33c0-2.84-1.47-4.09-6.81-6.24l-7.27-3.07c-8.96-3.62-13.16-8.39-13.16-16.8,0-10.33,8.17-18.16,24.97-18.16,8.29,0,15.88,2.27,21.9,5.67l-3.29,11.69c-5.9-2.95-12.81-5.1-18.61-5.1s-8.51,1.92-8.51,5.1c0,2.84,1.7,4.09,5.79,5.67l7.72,3.17c9.54,3.87,13.73,8.06,13.73,17.25s-7.27,18.05-24.85,18.05c-9.99,0-17.81-2.84-23.6-6.24l3.29-12.03c5.57,3.4,12.71,5.9,20.31,5.9,5.9,0,8.39-1.82,8.39-4.87v.02Z"/>
      <path class="cls-1" d="M876.37,84.33c0-2.84-1.47-4.09-6.81-6.24l-7.27-3.07c-8.96-3.62-13.16-8.39-13.16-16.8,0-10.33,8.17-18.16,24.97-18.16,8.29,0,15.88,2.27,21.9,5.67l-3.29,11.69c-5.9-2.95-12.81-5.1-18.61-5.1s-8.51,1.92-8.51,5.1c0,2.84,1.7,4.09,5.79,5.67l7.72,3.17c9.54,3.87,13.73,8.06,13.73,17.25s-7.27,18.05-24.85,18.05c-9.99,0-17.81-2.84-23.6-6.24l3.29-12.03c5.57,3.4,12.71,5.9,20.31,5.9,5.9,0,8.39-1.82,8.39-4.87v.02Z"/>
    </g>
  </g>
</svg>